<svg width="300px" height="71px" viewBox="0 0 300 71" xmlns="http://www.w3.org/2000/svg">
  <title>
    swiss_logo
  </title>
  <g id="Page-1" fill="none" fill-rule="evenodd">
    <g id="swiss_logo" fill-rule="nonzero">
      <path d="M219.36 57.73h-11.53V13.35h11.53v44.38zm-27.3-44.38l-7.4 29.74-8.68-29.8h-11.14L156.16 43l-7.44-29.75h-11.26l12.24 44.4h11.9l8.8-30.44 8.8 30.47h11.9l12.3-44.4h-11.3zM136.5 45.18c0-8.5-4.5-11.36-14.4-14.58-4.64-1.52-8.98-2.68-8.98-6.3 0-3.17 3.23-4.23 5.64-4.23 2.04 0 5.88.44 6.2 5.15h10.9c-.2-9-7.5-12.9-16.9-12.9-5.84 0-10.66 1.65-13.7 4.63-2.1 2.1-3.4 5.15-3.4 8.34 0 8.2 5.52 11.5 11.76 13.4 7 2.1 11.64 3.4 11.64 7.22 0 2.57-2.04 5.14-6.08 5.14-5.12 0-6.98-3.06-7.1-6.06h-11.03c0 10.23 8.62 13.96 18.14 13.96 12.1 0 17.3-6.9 17.3-13.9zm123.62 0c0-9.8-7.12-12.37-15.73-14.94-4.2-1.23-7.9-2.32-7.9-5.94 0-3.17 3.2-4.23 5.6-4.23 2 0 5.9.44 6.2 5.15h10.9c-.2-9-7.5-12.9-16.9-12.9-5.8 0-10.7 1.65-13.7 4.63-2.1 2.1-3.4 5.15-3.4 8.34 0 8.2 5.5 11.5 11.72 13.4 7 2.1 11.63 3.4 11.63 7.22 0 2.57-2.03 5.14-6.06 5.14-5.17 0-7-3.06-7.14-6.06h-11c.03 10.28 8.63 14 18.2 14 12.1 0 17.5-6.9 17.5-13.9zm39.65 0c0-9.8-7.15-12.37-15.75-14.94-4.16-1.23-7.87-2.32-7.87-5.94 0-3.17 3.2-4.23 5.63-4.23 2.03 0 5.88.44 6.2 5.15h10.92c-.2-9-7.53-12.9-16.92-12.9-5.83 0-10.66 1.65-13.7 4.63-2.1 2.1-3.4 5.15-3.4 8.34 0 8.2 5.5 11.5 11.75 13.4 7 2.1 11.65 3.4 11.65 7.22 0 2.57-2.04 5.14-6.07 5.14-5.1 0-6.9-3.06-7.1-6.06h-11c0 10.23 8.6 13.96 18.2 13.96 12.2 0 17.6-6.9 17.6-13.9z" id="path3059" fill="#C00"/>
      <path id="polygon3061" fill="#C00" d="M56.13.94H93.5L76.4 70.3H.5z"/>
      <path id="polygon3063" fill="#FFF" d="M64.8 42h14.9V29.2H64.8V14.3H52v14.9H37.05V42h14.92v14.94h12.8V42z"/>
    </g>
  </g>
</svg>
